PathFileType	4	(X/Y/Z)	Kaydara	
DataRate	CameraRate	NumFrames	NumMarkers	Units	OrigDataRate	OrigDataStartFrame	OrigNumFrames	
30.00	30.00	4	28	mm	30.00	95	126	
Frame#	Time	reference			Hips			Spine			Spine1			Neck			Head			Head_End			LeftShoulder			LeftArm			LeftForeArm			LeftHand			LeftHand_End			RightShoulder			RightArm			RightForeArm			RightHand			RightHand_End			LeftUpLeg			LeftLeg			LeftFoot			LeftFoot_End			RightUpLeg			RightLeg			RightFoot			RightFoot_End			Tail			Tail1			Tail1_End			
		X1	Y1	Z1	X2	Y2	Z2	X3	Y3	Z3	X4	Y4	Z4	X5	Y5	Z5	X6	Y6	Z6	X7	Y7	Z7	X8	Y8	Z8	X9	Y9	Z9	X10	Y10	Z10	X11	Y11	Z11	X12	Y12	Z12	X13	Y13	Z13	X14	Y14	Z14	X15	Y15	Z15	X16	Y16	Z16	X17	Y17	Z17	X18	Y18	Z18	X19	Y19	Z19	X20	Y20	Z20	X21	Y21	Z21	X22	Y22	Z22	X23	Y23	Z23	X24	Y24	Z24	X25	Y25	Z25	X26	Y26	Z26	X27	Y27	Z27	X28	Y28	Z28	

95	3.133	0.00000	0.00000	0.00000	175.99768	-175.88440	469.48978	175.99774	-175.88445	469.48981	207.31116	-363.22089	464.53739	184.34701	-586.64845	449.91756	168.25736	-723.61108	474.05069	122.92595	-880.00033	425.18899	226.01994	-562.29846	415.14029	257.93514	-615.54902	364.68449	237.94521	-543.82328	232.17113	183.74649	-606.36130	74.57839	170.61672	-654.43099	22.60811	140.99911	-554.22192	425.25159	87.58216	-579.18962	371.16261	62.41800	-469.70382	268.77292	106.59953	-482.40390	96.81164	134.08835	-499.98752	32.63082	224.33192	-119.96800	390.19129	262.13167	-225.85764	276.35577	218.89419	-158.36566	115.18699	211.86021	-190.43813	12.29929	128.56148	-119.00984	390.33057	143.41810	-171.77127	240.01260	140.75590	-26.14086	134.25497	147.38161	10.37176	32.83048	176.66280	-107.90370	459.25062	192.03538	-48.63089	356.04985	208.55547	7.12570	251.08182 
96	3.167	0.00000	0.00000	0.00000	176.72127	-179.89075	469.69036	176.72133	-179.89080	469.69038	209.60837	-366.96897	465.19618	185.88418	-590.29964	450.31181	169.60920	-727.16566	474.86504	118.59419	-881.86432	426.22561	227.32156	-565.99395	415.22348	258.92946	-619.22430	364.55336	236.70773	-546.35451	233.02329	183.18626	-606.51828	74.27899	170.43712	-654.44948	22.08651	142.41526	-557.69918	426.09210	88.06078	-582.80412	373.01002	59.19210	-473.79292	271.09251	102.72271	-488.53584	99.12822	131.57387	-503.55316	34.89360	224.82270	-123.41879	390.64439	262.26250	-228.43516	275.88470	219.02539	-159.22483	115.44623	211.82720	-190.37799	12.28777	129.04831	-122.99612	390.68796	144.85708	-174.39985	239.99715	140.18086	-28.37060	134.86120	146.34850	9.53177	33.91878	177.01679	-111.87080	459.69744	192.19412	-52.12281	356.74207	208.29519	4.56553	252.20889 
97	3.200	0.00000	0.00000	0.00000	177.69806	-183.84430	469.91924	177.69812	-183.84435	469.91926	211.21032	-370.79840	464.90772	187.17526	-594.12869	450.52504	171.15790	-730.90578	475.73454	114.70011	-883.60628	426.79503	228.30353	-569.89953	415.02255	259.47450	-622.86933	363.81159	236.52951	-548.39915	233.30606	182.81162	-606.51383	73.86626	170.38537	-654.38829	21.54399	143.50841	-561.52424	426.66952	88.25592	-587.28399	374.84316	57.17150	-477.79909	274.09179	98.33689	-497.59268	102.05224	128.00389	-509.91396	37.61583	225.43348	-126.77939	391.07750	262.61342	-230.78393	275.31624	219.32864	-160.06328	115.55066	212.04331	-190.19439	12.09517	129.65826	-126.87607	391.19257	146.69902	-176.52357	240.04788	140.02928	-30.46497	135.06036	145.74234	9.33994	34.82598	177.61757	-115.78219	460.21349	192.40365	-55.72526	357.38101	207.80613	1.41416	252.98825 
98	3.233	0.00000	0.00000	0.00000	178.83247	-187.86919	470.18219	178.83253	-187.86924	470.18221	211.99740	-374.85114	464.02929	188.18795	-598.26329	450.57233	172.27041	-734.91348	476.52233	110.32230	-885.33355	427.16411	228.93359	-574.07954	414.60077	259.72549	-626.70014	362.80383	236.43928	-550.09724	233.59964	182.54929	-606.64225	73.65432	170.31654	-654.34599	21.13090	144.24087	-565.80313	427.03677	88.47765	-592.51904	376.25195	55.45180	-481.53999	277.77879	93.37252	-508.95678	106.03967	124.66402	-517.91253	41.81638	226.01496	-130.04987	391.55755	263.11654	-232.87715	274.72438	219.47977	-160.76892	115.67641	212.10895	-190.29207	12.05182	130.24281	-130.75050	391.90326	149.15899	-178.69455	240.43206	139.93333	-32.71240	135.53173	144.82468	8.46018	35.80765	178.30045	-119.75396	460.87135	192.47662	-59.43340	358.10731	207.11021	-2.06596	253.72899 
